<svg width="37" height="31" viewBox="0 0 37 31" fill="none" xmlns="http://www.w3.org/2000/svg">
<path fill-rule="evenodd" clip-rule="evenodd" d="M3.1219 0H33.8784C35.5956 0 37 1.39578 37 3.10182C37 4.80787 35.5956 6.20395 33.8784 6.20395H3.1219C1.40498 6.20395 0 4.80817 0 3.10212C0 1.39578 1.40498 0 3.1219 0ZM3.1219 24.7963H33.8784C35.5956 24.7963 37 26.1921 37 27.8982C37 29.6042 35.5956 31 33.8784 31H3.1219C1.40498 31 0 29.6042 0 27.8982C0 26.1921 1.40498 24.7963 3.1219 24.7963ZM3.1219 12.3983H33.8784C35.5956 12.3983 37 13.7941 37 15.5001C37 17.2062 35.5956 18.6023 33.8784 18.6023H3.1219C1.40498 18.6023 0 17.2062 0 15.5001C0 13.7941 1.40498 12.3983 3.1219 12.3983Z" fill="black"/>
</svg>
